<svg version="1.1" id="Layer_1" xmlns="http://www.w3.org/2000/svg" xmlns:xlink="http://www.w3.org/1999/xlink" x="0px" y="0px"
	 width="100%" viewBox="0 0 300 275" enable-background="new 0 0 300 275" xml:space="preserve">
<path fill="#000000" opacity="1.000000" stroke="none" 
	d="
M170.000000,276.000000 
	C113.333344,276.000000 57.166679,276.000000 1.000015,276.000000 
	C1.000010,184.333344 1.000010,92.666702 1.000005,1.000040 
	C100.999969,1.000026 200.999939,1.000026 300.999939,1.000013 
	C300.999939,92.666626 300.999939,184.333252 300.999969,275.999939 
	C257.500000,276.000000 214.000000,276.000000 170.000000,276.000000 
M170.259232,48.323009 
	C169.231964,48.704647 168.067688,48.891003 167.199783,49.499828 
	C161.817764,53.275230 156.678238,57.439289 151.057663,60.805553 
	C149.368088,61.817471 146.313705,61.032284 144.046707,60.444710 
	C142.260178,59.981667 140.700165,58.593143 139.078674,57.554577 
	C134.361710,54.533356 129.692444,51.436913 124.952637,48.452274 
	C118.276871,44.248585 111.624344,40.000259 104.827698,35.998955 
	C100.259178,33.309387 98.053185,34.674763 98.004333,39.852989 
	C97.979187,42.518120 98.038322,45.184422 97.987770,47.848835 
	C97.940910,50.318478 97.431770,51.211067 94.379318,50.278728 
	C86.417992,47.847004 78.283035,45.955875 70.162613,44.086811 
	C66.993843,43.357456 64.697197,44.123356 64.928001,48.356724 
	C65.224258,53.790718 65.000015,59.253094 65.000015,64.999947 
	C63.424732,64.999947 62.289005,65.010658 61.153534,64.998299 
	C48.383881,64.859390 42.133656,73.036369 42.072014,83.826546 
	C41.876934,117.975471 41.877426,152.127182 42.147625,186.275070 
	C42.183323,190.786560 43.271152,195.848892 45.543129,199.659607 
	C49.491196,206.281601 57.027325,206.880554 63.850887,206.901993 
	C119.323326,207.076370 174.796631,207.040604 230.269333,206.914474 
	C234.234512,206.905457 238.295105,206.023010 242.139069,204.936951 
	C249.035599,202.988449 252.997223,197.373291 252.998062,190.339066 
	C253.002304,154.356598 253.000717,118.374115 252.999573,82.391640 
	C252.999252,72.472504 245.444061,65.027992 235.353973,65.000641 
	C233.609497,64.995918 231.864975,64.999969 229.758118,64.999969 
	C229.758118,57.568756 229.758118,50.812023 229.758118,43.288170 
	C218.651215,46.024017 208.069687,48.630455 196.922485,51.376232 
	C196.922485,45.584629 196.922485,40.337463 196.922485,33.769779 
	C186.987778,37.744247 179.266022,43.698154 170.259232,48.323009 
M199.500000,258.000122 
	C224.489502,258.000122 249.479065,258.021332 274.468384,257.953247 
	C276.166748,257.948639 278.197510,257.740631 279.493073,256.814728 
	C282.458099,254.695801 283.393585,242.607681 280.803619,239.986359 
	C273.734039,232.831207 266.478821,225.859451 259.300629,218.811554 
	C253.815964,213.426392 247.035889,211.098404 239.552155,211.089935 
	C178.244370,211.020584 116.936150,210.967148 55.629246,211.209366 
	C50.727108,211.228760 45.371220,211.298386 41.063438,215.295258 
	C34.323544,221.548737 27.520147,227.852325 20.053865,233.165344 
	C14.477795,237.133286 13.398650,241.931427 13.991026,247.923965 
	C14.056262,248.583893 13.999392,249.255875 13.999906,249.922256 
	C14.005002,256.528931 15.470167,257.999268 22.073294,257.999420 
	C80.882195,258.000610 139.691101,258.000122 199.500000,258.000122 
z"/>
<path fill="#FFFFFF" opacity="1.000000" stroke="none" 
	d="
M170.612762,48.439911 
	C179.266022,43.698154 186.987778,37.744247 196.922485,33.769779 
	C196.922485,40.337463 196.922485,45.584629 196.922485,51.376232 
	C208.069687,48.630455 218.651215,46.024017 229.758118,43.288170 
	C229.758118,50.812023 229.758118,57.568756 229.758118,64.999969 
	C231.864975,64.999969 233.609497,64.995918 235.353973,65.000641 
	C245.444061,65.027992 252.999252,72.472504 252.999573,82.391640 
	C253.000717,118.374115 253.002304,154.356598 252.998062,190.339066 
	C252.997223,197.373291 249.035599,202.988449 242.139069,204.936951 
	C238.295105,206.023010 234.234512,206.905457 230.269333,206.914474 
	C174.796631,207.040604 119.323326,207.076370 63.850887,206.901993 
	C57.027325,206.880554 49.491196,206.281601 45.543129,199.659607 
	C43.271152,195.848892 42.183323,190.786560 42.147625,186.275070 
	C41.877426,152.127182 41.876934,117.975471 42.072014,83.826546 
	C42.133656,73.036369 48.383881,64.859390 61.153534,64.998299 
	C62.289005,65.010658 63.424732,64.999947 65.000015,64.999947 
	C65.000015,59.253094 65.224258,53.790718 64.928001,48.356724 
	C64.697197,44.123356 66.993843,43.357456 70.162613,44.086811 
	C78.283035,45.955875 86.417992,47.847004 94.379318,50.278728 
	C97.431770,51.211067 97.940910,50.318478 97.987770,47.848835 
	C98.038322,45.184422 97.979187,42.518120 98.004333,39.852989 
	C98.053185,34.674763 100.259178,33.309387 104.827698,35.998955 
	C111.624344,40.000259 118.276871,44.248585 124.952637,48.452274 
	C129.692444,51.436913 134.361710,54.533356 139.078674,57.554577 
	C140.700165,58.593143 142.260178,59.981667 144.046707,60.444710 
	C146.313705,61.032284 149.368088,61.817471 151.057663,60.805553 
	C156.678238,57.439289 161.817764,53.275230 167.199783,49.499828 
	C168.067688,48.891003 169.231964,48.704647 170.612762,48.439911 
M56.000038,127.500000 
	C56.000042,147.330902 56.086014,167.162460 55.935234,186.992218 
	C55.900654,191.540298 57.625263,193.068207 62.094887,193.060959 
	C119.088257,192.968430 176.081833,192.991714 233.075348,193.012436 
	C238.953278,193.014572 240.147293,190.892868 240.116470,186.221878 
	C239.897659,153.060410 240.000153,119.896843 239.999893,86.733948 
	C239.999832,79.114250 237.842636,77.307770 230.000015,78.585526 
	C230.000015,80.195946 230.000031,81.845474 230.000031,83.495003 
	C230.000031,106.325737 229.974594,129.156540 230.031464,151.987137 
	C230.038757,154.919571 229.775833,156.401657 226.033951,157.226517 
	C213.873489,159.907166 201.933167,163.569489 189.850815,166.627563 
	C181.895554,168.641052 173.793594,170.082291 165.860474,172.171417 
	C163.406921,172.817566 159.720413,174.436829 159.374130,176.166290 
	C158.785934,179.104004 157.425674,179.009125 155.482056,179.127274 
	C150.734116,179.415863 145.970261,180.041077 141.246262,179.819092 
	C139.460464,179.735153 136.848221,178.044662 136.244385,176.463409 
	C135.319183,174.040588 133.636154,173.524460 131.788925,173.047745 
	C121.172737,170.307968 110.515533,167.727325 99.894981,165.004059 
	C90.171715,162.510864 80.579475,159.332367 70.729805,157.575256 
	C65.275398,156.602234 64.877113,153.984451 64.950523,149.704941 
	C65.110542,140.375412 64.999977,131.041245 64.999977,121.708977 
	C64.999977,107.234726 64.999969,92.760475 64.999969,78.314674 
	C58.071457,77.800652 56.002197,79.641960 56.000885,86.004601 
	C55.998100,99.503067 56.000038,113.001534 56.000038,127.500000 
M142.999985,124.500000 
	C142.999985,107.204071 142.999985,89.908142 142.999985,73.063202 
	C131.578262,65.916107 120.476967,58.969513 109.000092,51.787907 
	C109.000092,80.834373 108.950089,109.119286 109.114975,137.402954 
	C109.125725,139.247482 110.289001,141.859100 111.757309,142.796829 
	C121.956352,149.310349 132.378036,155.475266 142.999985,161.916779 
	C142.999985,149.447372 142.999985,137.473694 142.999985,124.500000 
M153.000015,147.489746 
	C153.000015,152.191910 153.000015,156.894058 153.000015,162.021408 
	C154.753891,160.713974 155.847168,159.762115 157.065155,159.012970 
	C165.799164,153.640930 174.535568,148.271896 183.323486,142.988892 
	C186.036621,141.357849 187.132111,139.392700 187.102127,136.010468 
	C186.904343,113.697906 186.999985,91.382744 186.999985,69.068436 
	C186.999985,64.104752 186.999985,59.141075 186.999985,53.084526 
	C174.229202,58.129642 164.357086,66.572578 153.000015,72.448242 
	C153.000015,97.210785 153.000015,121.851944 153.000015,147.489746 
M219.999985,63.617722 
	C219.999985,61.475895 219.999985,59.334072 219.999985,56.810566 
	C212.165344,58.815552 204.753555,60.712322 197.000809,62.696350 
	C197.000809,88.542480 197.000229,114.649803 197.005173,140.757126 
	C197.005264,141.252228 196.901413,141.851685 197.132172,142.226074 
	C199.127441,145.463226 197.330475,147.242645 194.731094,148.779617 
	C191.384354,150.758469 188.055939,152.768311 184.719620,154.764786 
	C184.926254,155.299118 185.132874,155.833466 185.339493,156.367798 
	C196.858566,153.534363 208.377640,150.700928 219.999985,147.842102 
	C219.999985,119.824356 219.999985,92.208321 219.999985,63.617722 
M92.473663,152.002838 
	C99.160240,153.685165 105.846817,155.367508 112.533394,157.049850 
	C109.038940,153.893280 105.423187,151.215164 101.488724,149.141876 
	C98.535225,147.585526 97.912094,145.577255 97.929581,142.461548 
	C98.059387,119.329460 97.999985,96.196304 97.999977,73.063484 
	C97.999977,69.431854 97.999969,65.800217 97.999969,62.544903 
	C90.455223,60.628651 83.392479,58.834816 76.167267,56.999722 
	C76.167267,87.559853 76.167267,117.648750 76.167267,147.604553 
	C78.801857,148.429321 81.232460,149.247986 83.697212,149.946106 
	C86.321724,150.689484 88.978554,151.318756 92.473663,152.002838 
z"/>
<path fill="#FFFFFF" opacity="1.000000" stroke="none" 
	d="
M199.000000,258.000122 
	C139.691101,258.000122 80.882195,258.000610 22.073294,257.999420 
	C15.470167,257.999268 14.005002,256.528931 13.999906,249.922256 
	C13.999392,249.255875 14.056262,248.583893 13.991026,247.923965 
	C13.398650,241.931427 14.477795,237.133286 20.053865,233.165344 
	C27.520147,227.852325 34.323544,221.548737 41.063438,215.295258 
	C45.371220,211.298386 50.727108,211.228760 55.629246,211.209366 
	C116.936150,210.967148 178.244370,211.020584 239.552155,211.089935 
	C247.035889,211.098404 253.815964,213.426392 259.300629,218.811554 
	C266.478821,225.859451 273.734039,232.831207 280.803619,239.986359 
	C283.393585,242.607681 282.458099,254.695801 279.493073,256.814728 
	C278.197510,257.740631 276.166748,257.948639 274.468384,257.953247 
	C249.479065,258.021332 224.489502,258.000122 199.000000,258.000122 
M129.896790,239.000137 
	C125.648834,239.199310 121.628639,242.406433 121.392365,245.856140 
	C139.094894,245.856140 156.791824,245.856140 174.564285,245.856140 
	C172.077637,240.070114 170.515427,239.000824 164.719666,239.000381 
	C153.418900,238.999527 142.118134,239.000137 129.896790,239.000137 
z"/>
<path fill="#000000" opacity="1.000000" stroke="none" 
	d="
M56.000038,127.000000 
	C56.000038,113.001534 55.998100,99.503067 56.000885,86.004601 
	C56.002197,79.641960 58.071457,77.800652 64.999969,78.314674 
	C64.999969,92.760475 64.999977,107.234726 64.999977,121.708977 
	C64.999977,131.041245 65.110542,140.375412 64.950523,149.704941 
	C64.877113,153.984451 65.275398,156.602234 70.729805,157.575256 
	C80.579475,159.332367 90.171715,162.510864 99.894981,165.004059 
	C110.515533,167.727325 121.172737,170.307968 131.788925,173.047745 
	C133.636154,173.524460 135.319183,174.040588 136.244385,176.463409 
	C136.848221,178.044662 139.460464,179.735153 141.246262,179.819092 
	C145.970261,180.041077 150.734116,179.415863 155.482056,179.127274 
	C157.425674,179.009125 158.785934,179.104004 159.374130,176.166290 
	C159.720413,174.436829 163.406921,172.817566 165.860474,172.171417 
	C173.793594,170.082291 181.895554,168.641052 189.850815,166.627563 
	C201.933167,163.569489 213.873489,159.907166 226.033951,157.226517 
	C229.775833,156.401657 230.038757,154.919571 230.031464,151.987137 
	C229.974594,129.156540 230.000031,106.325737 230.000031,83.495003 
	C230.000031,81.845474 230.000015,80.195946 230.000015,78.585526 
	C237.842636,77.307770 239.999832,79.114250 239.999893,86.733948 
	C240.000153,119.896843 239.897659,153.060410 240.116470,186.221878 
	C240.147293,190.892868 238.953278,193.014572 233.075348,193.012436 
	C176.081833,192.991714 119.088257,192.968430 62.094887,193.060959 
	C57.625263,193.068207 55.900654,191.540298 55.935234,186.992218 
	C56.086014,167.162460 56.000042,147.330902 56.000038,127.000000 
z"/>
<path fill="#000000" opacity="1.000000" stroke="none" 
	d="
M142.999985,125.000000 
	C142.999985,137.473694 142.999985,149.447372 142.999985,161.916779 
	C132.378036,155.475266 121.956352,149.310349 111.757309,142.796829 
	C110.289001,141.859100 109.125725,139.247482 109.114975,137.402954 
	C108.950089,109.119286 109.000092,80.834373 109.000092,51.787907 
	C120.476967,58.969513 131.578262,65.916107 142.999985,73.063202 
	C142.999985,89.908142 142.999985,107.204071 142.999985,125.000000 
z"/>
<path fill="#000000" opacity="1.000000" stroke="none" 
	d="
M153.000015,146.991425 
	C153.000015,121.851944 153.000015,97.210785 153.000015,72.448242 
	C164.357086,66.572578 174.229202,58.129642 186.999985,53.084526 
	C186.999985,59.141075 186.999985,64.104752 186.999985,69.068436 
	C186.999985,91.382744 186.904343,113.697906 187.102127,136.010468 
	C187.132111,139.392700 186.036621,141.357849 183.323486,142.988892 
	C174.535568,148.271896 165.799164,153.640930 157.065155,159.012970 
	C155.847168,159.762115 154.753891,160.713974 153.000015,162.021408 
	C153.000015,156.894058 153.000015,152.191910 153.000015,146.991425 
z"/>
<path fill="#000000" opacity="1.000000" stroke="none" 
	d="
M219.999985,64.105003 
	C219.999985,92.208321 219.999985,119.824356 219.999985,147.842102 
	C208.377640,150.700928 196.858566,153.534363 185.339493,156.367798 
	C185.132874,155.833466 184.926254,155.299118 184.719620,154.764786 
	C188.055939,152.768311 191.384354,150.758469 194.731094,148.779617 
	C197.330475,147.242645 199.127441,145.463226 197.132172,142.226074 
	C196.901413,141.851685 197.005264,141.252228 197.005173,140.757126 
	C197.000229,114.649803 197.000809,88.542480 197.000809,62.696350 
	C204.753555,60.712322 212.165344,58.815552 219.999985,56.810566 
	C219.999985,59.334072 219.999985,61.475895 219.999985,64.105003 
z"/>
<path fill="#000000" opacity="1.000000" stroke="none" 
	d="
M92.047470,152.000336 
	C88.978554,151.318756 86.321724,150.689484 83.697212,149.946106 
	C81.232460,149.247986 78.801857,148.429321 76.167267,147.604553 
	C76.167267,117.648750 76.167267,87.559853 76.167267,56.999722 
	C83.392479,58.834816 90.455223,60.628651 97.999969,62.544903 
	C97.999969,65.800217 97.999977,69.431854 97.999977,73.063484 
	C97.999985,96.196304 98.059387,119.329460 97.929581,142.461548 
	C97.912094,145.577255 98.535225,147.585526 101.488724,149.141876 
	C105.423187,151.215164 109.038940,153.893280 112.533394,157.049850 
	C105.846817,155.367508 99.160240,153.685165 92.047470,152.000336 
z"/>
<path fill="#000000" opacity="1.000000" stroke="none" 
	d="
M130.357086,239.000137 
	C142.118134,239.000137 153.418900,238.999527 164.719666,239.000381 
	C170.515427,239.000824 172.077637,240.070114 174.564285,245.856140 
	C156.791824,245.856140 139.094894,245.856140 121.392365,245.856140 
	C121.628639,242.406433 125.648834,239.199310 130.357086,239.000137 
z"/>
</svg>